<svg viewBox="0 0 24 24"  xmlns="http://www.w3.org/2000/svg">
    <path d="M13.3129 2.27505C12.9119 1.55005 11.9999 1.28705 11.2749 1.68705C11.0279 1.82405 10.8239 2.02705 10.6869 2.27505L0.93693 20.2751C0.53693 21.0001 0.79993 21.9131 1.52493 22.3131C1.74693 22.4361 1.99593 22.5001 2.24993 22.5001H21.7499C22.5779 22.5001 23.2499 21.8281 23.2499 21.0001C23.2499 20.7461 23.1859 20.4971 23.0629 20.2751L13.3129 2.27505Z" />
    <path d="M12 18C12.207 18 12.375 18.168 12.375 18.375" />
    <path d="M11.625 18.375C11.625 18.168 11.793 18 12 18" />
    <path d="M12 18.75C11.793 18.75 11.625 18.582 11.625 18.375" />
    <path d="M12.375 18.375C12.375 18.582 12.207 18.75 12 18.75" />
    <path d="M12 15V8.25" />
</svg>
