<svg viewBox="0 0 24 24"  xmlns="http://www.w3.org/2000/svg">
   <path class="outline" d="m11.99996,22.89172c5.99579,0 10.85639,-4.87636 10.85639,-10.8917c0,-6.01537 -4.8606,-10.89175 -10.85639,-10.89175c-5.99576,0 -10.85631,4.87638 -10.85631,10.89175c0,6.01534 4.86055,10.8917 10.85631,10.8917z"/>
   <path d="m15.25678,16.35669c-0.61336,-1.33421 -1.87541,-2.17837 -3.2569,-2.17837c-0.79753,0 -1.55517,0.28133 -2.17129,0.77579"/>
   <path d="m9.01436,9.82166c0.22489,0 0.40711,0.18282 0.40711,0.40844c0,0.22554 -0.18222,0.40844 -0.40711,0.40844c-0.22481,0 -0.40711,-0.1829 -0.40711,-0.40844c0,-0.22562 0.18231,-0.40844 0.40711,-0.40844"/>
   <path d="m14.98548,9.82166c0.22481,0 0.40711,0.18282 0.40711,0.40844c0,0.22554 -0.18231,0.40844 -0.40711,0.40844c-0.22481,0 -0.40711,-0.1829 -0.40711,-0.40844c0,-0.22562 0.18231,-0.40844 0.40711,-0.40844"/>
</svg>
