<svg viewBox="0 0 24 24"  xmlns="http://www.w3.org/2000/svg">
   <line x1="8.29512" y1="13.27746" x2="15.97587" y2="16.92863"/>
   <line x1="8.14093" y1="10.2361" x2="16.01156" y2="6.88407"/>
   <path d="m19.03059,8.80555c2.85209,0 4.63368,-3.09762 3.20764,-5.57392c-1.42604,-2.47757 -4.99051,-2.47757 -6.41655,0c-1.36615,2.37403 0.2141,5.36426 2.93874,5.56369"/>
   <path d="m4.96897,15.65149c2.85209,0 4.63368,-3.09762 3.20764,-5.57392c-1.42604,-2.47757 -4.99051,-2.47757 -6.41655,0c-1.36615,2.37403 0.2141,5.36426 2.93874,5.56369"/>
   <path d="m18.89084,22.62655c2.85209,0 4.63368,-3.09762 3.20764,-5.57392c-1.42604,-2.47757 -4.99051,-2.47757 -6.41655,0c-1.36615,2.37403 0.2141,5.36426 2.93874,5.56369"/>  
</svg>
