<svg viewBox="0 0 24 24"  xmlns="http://www.w3.org/2000/svg">
   <path class="outline" d="m12.00002,22.85997c5.9978,0 10.85994,-4.86214 10.85994,-10.85994c0,-5.99783 -4.86214,-10.86 -10.85994,-10.86c-5.99781,0 -10.85998,4.86217 -10.85998,10.86c0,5.9978 4.86217,10.85994 10.85998,10.85994z" clip-rule="evenodd" fill-rule="evenodd"/>
   <path d="m15.25793,15.25802c0,1.19959 -1.45868,2.17202 -3.25799,2.17202c-1.79931,0 -3.25799,-0.97243 -3.25799,-2.17202"/>
   <path d="m18.51584,10.91398c-0.30625,0.97658 -1.12588,1.62957 -2.04537,1.62957c-0.91949,0 -1.73903,-0.65298 -2.04537,-1.62957"/>
   <path d="m9.57469,10.91398c-0.30633,0.97658 -1.12588,1.62957 -2.04537,1.62957c-0.91948,0 -1.73907,-0.65298 -2.04536,-1.62957"/>
</svg>
