<svg viewBox="0 0 24 24" xmlns="http://www.w3.org/2000/svg">
   <path d="m0.84937,11.98198c0,2.96107 1.18445,5.80079 3.29277,7.8946c2.10834,2.0937 4.96784,3.27 7.94946,3.27c2.98167,0 5.84113,-1.1763 7.9495,-3.27c2.10826,-2.09381 3.29274,-4.93352 3.29274,-7.8946c0,-2.96103 -1.18448,-5.80079 -3.29274,-7.89456c-2.10837,-2.09376 -4.96783,-3.27003 -7.9495,-3.27003c-2.98162,0 -5.84113,1.17627 -7.94946,3.27003c-2.10832,2.09377 -3.29277,4.93353 -3.29277,7.89456l0,0z"/>
   <path d="m8.54437,8.45922c0.00012,-0.61402 0.1702,-1.21619 0.49165,-1.74072c0.32145,-0.52451 0.78191,-0.95118 1.33104,-1.23336c0.54909,-0.28219 1.16584,-0.40904 1.78259,-0.36668c0.61686,0.04235 1.21011,0.25228 1.71489,0.60683c0.50478,0.35455 0.90174,0.84009 1.14738,1.40355c0.24576,0.56345 0.33075,1.18315 0.24576,1.79134c-0.08499,0.60819 -0.33659,1.18149 -0.72749,1.65723c-0.39089,0.47571 -0.90601,0.83566 -1.48892,1.04031c-0.32895,0.11544 -0.61371,0.32947 -0.81506,0.61238c-0.20135,0.28291 -0.30939,0.62097 -0.30916,0.96741l0,1.12316"/>
   <path d="m11.91704,17.39092c-0.22237,0 -0.43968,0.06542 -0.62462,0.18812c-0.18482,0.1227 -0.32895,0.29709 -0.41405,0.50107c-0.0851,0.20398 -0.10733,0.4285 -0.06397,0.64509c0.0434,0.21659 0.15042,0.41555 0.3077,0.57163c0.15717,0.15619 0.3575,0.26248 0.5756,0.30558c0.2181,0.0431 0.44418,0.02099 0.64958,-0.06353c0.2054,-0.08452 0.381,-0.22765 0.50455,-0.41119c0.12355,-0.18366 0.18943,-0.39947 0.18943,-0.6203c0,-0.29609 -0.11849,-0.58011 -0.32929,-0.78945c-0.21079,-0.20934 -0.49679,-0.32701 -0.79494,-0.32701z"/>
</svg>
